<!DOCTYPE svg PUBLIC "-//W3C//DTD SVG 1.1//EN" "http://www.w3.org/Graphics/SVG/1.1/DTD/svg11.dtd">
<!-- Uploaded to: SVG Repo, www.svgrepo.com, Transformed by: SVG Repo Mixer Tools -->
<svg fill="#ffffff" height="800px" width="800px" version="1.1" id="Layer_1" xmlns="http://www.w3.org/2000/svg" xmlns:xlink="http://www.w3.org/1999/xlink" viewBox="0 0 512 512" xml:space="preserve" stroke="#ffffff">
<g id="SVGRepo_bgCarrier" stroke-width="0"/>
<g id="SVGRepo_tracerCarrier" stroke-linecap="round" stroke-linejoin="round"/>
<g id="SVGRepo_iconCarrier"> <g> <g> <path d="M474.004,231.812v-37.539c0-106.34-86.094-192.937-192.239-193.781v-0.02c-0.175,0-0.347,0.012-0.521,0.013 c-0.347-0.002-0.693-0.013-1.041-0.013h-37.717c-106.353,0-192.958,86.115-193.782,192.278H0V319.25h48.705 c0.823,106.163,87.429,192.278,193.782,192.278h37.717c0.348,0,0.693-0.011,1.041-0.013c0.174,0.001,0.346,0.013,0.521,0.013 v-0.02c106.145-0.844,192.239-87.441,192.239-193.781v-37.54L512,256.001L474.004,231.812z M429.134,126.972 c2.601,5.733,4.873,11.647,6.808,17.709h-45.745v30.361h52.308c0.743,6.31,1.138,12.725,1.138,19.231v18.212l-31-19.734h-56.992 c5.862-9.589,9.244-20.851,9.244-32.889s-3.383-23.299-9.244-32.889H429.134z M101.204,288.889v-65.777h200.443 c0.006,0,0.013,0,0.019,0h91.375v65.778h-91.394v-0.001H101.204z M281.244,30.847c26.21,0.165,50.976,6.525,72.903,17.695h-69.85 v30.361H395.86c5.514,5.527,10.636,11.444,15.318,17.709H301.647h-19.881c-18.135,0-32.889-14.753-32.889-32.889 C248.876,45.762,263.349,31.127,281.244,30.847z M126.835,78.904h66.38V48.542H168.53c17.955-9.149,37.818-15.063,58.816-17.001 c-5.601,9.435-8.83,20.436-8.83,32.182c0,12.038,3.383,23.299,9.245,32.889H111.517C116.2,90.349,121.321,84.43,126.835,78.904z M80.181,175.042h218.933v-30.361H86.736c1.935-6.064,4.222-11.972,6.824-17.709h188.206h19.881 c18.135,0,32.889,14.753,32.889,32.889c0,18.129-14.743,32.878-32.869,32.889H101.204H79.053 C79.108,186.765,79.497,180.859,80.181,175.042z M70.843,288.889h-6.977H48.685H30.361v-65.777h18.324h15.181h6.977V288.889z M227.344,480.461c-20.998-1.938-40.86-7.853-58.815-17.001h24.685v-30.361h-66.38c-5.514-5.527-10.633-11.444-15.317-17.709 h116.242c-5.862,9.589-9.245,20.851-9.245,32.889C218.514,460.025,221.743,471.026,227.344,480.461z M93.56,385.029 c-2.602-5.736-4.889-11.643-6.824-17.709h212.378v-30.361H80.181c-0.685-5.817-1.073-11.723-1.127-17.709h22.151h200.443 c18.135,0,32.888,14.754,32.888,32.889s-14.753,32.889-32.889,32.889h-19.881H93.56z M395.86,433.099H284.298v30.361h69.85 c-21.926,11.171-46.692,17.53-72.903,17.695c-17.895-0.28-32.368-14.915-32.368-32.876c0-18.135,14.755-32.889,32.889-32.889 h19.881h109.531C406.495,421.653,401.373,427.571,395.86,433.099z M443.643,317.728c0,6.506-0.394,12.922-1.138,19.231h-52.308 v30.361h45.745c-1.935,6.062-4.206,11.974-6.808,17.709h-73.483c5.862-9.589,9.244-20.851,9.244-32.889 c0-12.038-3.383-23.3-9.245-32.889h56.991l31.002-19.734V317.728z M423.402,276.411v-40.82l32.061,20.41L423.402,276.411z"/> </g> </g> </g>
</svg>